<svg version="1.1" id="Layer_1" xmlns="http://www.w3.org/2000/svg" xmlns:xlink="http://www.w3.org/1999/xlink" x="0px" y="0px"
	 width="100%" viewBox="0 0 200 200" enable-background="new 0 0 200 200" xml:space="preserve">
<path fill="#020202" opacity="1.000000" stroke="none" 
	d="
M119.000000,201.000000 
	C79.357826,201.000000 40.215649,201.000000 1.036737,201.000000 
	C1.036737,134.399536 1.036737,67.799034 1.036737,1.099268 
	C67.558670,1.099268 134.117538,1.099268 200.838196,1.099268 
	C200.838196,67.666351 200.838196,134.333145 200.838196,201.000000 
	C173.799316,201.000000 146.649658,201.000000 119.000000,201.000000 
M82.388702,126.819038 
	C83.224304,126.511086 84.059906,126.203125 85.466698,126.053528 
	C85.661385,126.019913 85.856079,125.986298 86.687218,126.288055 
	C86.617004,127.479050 86.546791,128.670044 86.437248,130.528290 
	C87.445740,129.990997 88.271393,129.551102 89.034332,129.039276 
	C89.034332,129.039276 89.034851,129.134720 89.637634,129.306290 
	C89.718369,128.911469 89.799103,128.516647 89.964020,127.455688 
	C90.206810,126.545319 90.613571,125.636436 90.621880,124.723930 
	C90.625923,124.280518 89.884560,123.830315 89.480644,123.383186 
	C89.323532,123.728600 89.166428,124.074005 88.365562,124.614014 
	C87.937401,124.704094 87.509239,124.794167 86.926849,124.220047 
	C85.879066,124.140541 84.831291,124.061043 83.159637,123.984550 
	C82.339638,124.224312 81.519638,124.464073 80.699631,124.703835 
	C81.288521,125.133430 81.877403,125.563034 82.388702,126.819038 
M31.541227,30.342545 
	C28.094740,30.342545 24.648251,30.342545 21.303009,30.342545 
	C21.303009,32.848408 21.303009,34.734322 21.303009,36.231983 
	C49.303246,36.231983 76.920807,36.287670 104.537994,36.210732 
	C120.650185,36.165844 134.848862,41.248135 147.222015,51.523201 
	C155.847397,58.686012 161.879288,67.731949 166.073608,77.774277 
	C168.260468,77.774277 170.140106,77.774277 172.244888,77.774277 
	C171.950821,76.767227 171.814224,76.122841 171.578384,75.517082 
	C160.801849,47.836731 134.749481,30.084478 104.451271,30.036715 
	C80.478004,29.998920 56.504330,30.226639 31.541227,30.342545 
M53.500053,139.937622 
	C49.657642,133.033035 45.815231,126.128441 41.904732,119.101501 
	C40.616299,119.101501 38.860924,119.101501 37.048752,119.101501 
	C44.224087,150.771088 75.601875,173.584015 109.357323,171.913574 
	C139.706329,170.411713 170.040512,145.427155 173.466202,118.970901 
	C171.656418,118.970901 169.867172,118.970901 168.133652,118.970901 
	C151.889038,170.993896 86.316673,182.179398 53.500053,139.937622 
M104.811501,57.352177 
	C103.558022,61.691254 107.843323,63.324413 109.402901,66.272461 
	C109.637642,66.716179 112.239441,65.907669 114.456673,65.570335 
	C115.446411,67.505455 116.530220,70.051956 118.012177,72.340645 
	C118.747437,73.476158 120.154022,74.692383 121.371040,74.825081 
	C122.227631,74.918472 123.779259,73.420135 124.152763,72.334084 
	C125.776260,67.613434 130.311676,64.984444 135.770615,67.170090 
	C137.680252,67.934669 138.338333,71.825142 140.139618,75.433243 
	C142.201828,76.038986 143.247040,75.697258 144.049576,72.135681 
	C144.994339,67.943001 145.596558,63.661957 146.138565,59.392727 
	C146.719650,54.815670 144.813705,52.442196 139.957245,51.756607 
	C134.410858,50.973618 129.036743,48.954899 123.488838,48.204166 
	C120.310593,47.774097 116.528076,47.984264 113.755707,49.376240 
	C110.501167,51.010311 108.047470,54.239418 104.811501,57.352177 
M98.907227,66.770477 
	C98.581039,65.665970 98.235710,64.566689 97.932266,63.455967 
	C97.047882,60.218861 90.428787,55.768665 87.146255,55.982491 
	C84.068253,56.182999 80.964287,55.965733 77.882263,56.129875 
	C75.078377,56.279213 72.190849,56.338242 69.515045,57.073467 
	C65.257698,58.243263 63.662045,62.361313 65.058281,68.214653 
	C65.944237,71.928795 66.939850,75.885864 72.023361,74.872665 
	C72.247009,72.822670 72.443436,71.022148 72.630623,69.306313 
	C75.230484,71.355614 77.475761,73.125420 79.901863,75.037766 
	C80.757523,72.612518 81.196114,71.369408 81.634697,70.126297 
	C82.905876,70.890800 84.228691,71.583069 85.431633,72.443031 
	C86.367592,73.112129 87.106201,74.560432 88.018814,74.637260 
	C89.284294,74.743805 90.630646,73.889755 91.942375,73.446983 
	C91.873116,72.958664 91.803864,72.470352 91.734612,71.982033 
	C93.156593,72.285744 94.578583,72.589462 96.292213,72.955467 
	C95.968285,71.911812 95.719200,71.109306 95.726906,71.134132 
	C97.075294,69.726387 98.109818,68.646332 98.907227,66.770477 
M144.563660,112.581932 
	C145.259415,111.548164 146.381470,110.581955 146.558334,109.465950 
	C146.883087,107.416740 146.650925,105.279266 146.650925,103.477646 
	C156.049103,100.040482 155.854919,112.765190 164.130112,112.602798 
	C162.410645,110.362480 161.235748,108.828323 160.057159,107.297005 
	C158.791412,105.652435 157.522186,104.010536 156.279343,102.399673 
	C162.033798,97.375519 163.365997,93.396225 161.025360,88.835556 
	C158.474106,83.864426 152.543228,82.199371 143.854202,83.975082 
	C143.854202,93.390221 143.854202,102.787041 144.563660,112.581932 
M117.471367,105.771622 
	C121.049904,100.044662 120.978539,94.334480 116.712723,89.117348 
	C112.291985,83.710739 106.291458,82.715561 99.728996,83.690849 
	C99.728996,93.532379 99.728996,102.925514 99.728996,112.409386 
	C106.733376,113.167160 112.658371,111.981987 117.471367,105.771622 
M63.396770,103.754128 
	C63.953243,102.553406 64.244087,101.094070 65.115021,100.199516 
	C67.946426,97.291290 69.453308,93.526291 67.594429,90.254395 
	C66.002701,87.452721 62.697224,85.017822 59.609276,83.851463 
	C56.777348,82.781807 53.223160,83.624329 50.260780,83.624329 
	C50.260780,93.616707 50.260780,103.078735 50.260780,112.540764 
	C50.895493,112.620453 51.530201,112.700142 52.164913,112.779831 
	C52.542637,109.563614 52.920361,106.347389 53.282776,103.261497 
	C58.652206,101.209480 60.615349,105.292030 63.289108,108.387688 
	C64.846695,110.191025 65.736526,113.732552 69.827438,111.926674 
	C67.744843,109.238838 65.831932,106.769997 63.396770,103.754128 
M88.816124,102.986641 
	C89.910187,105.378922 90.847878,107.862305 92.165733,110.124191 
	C92.803543,111.218880 94.154984,111.897766 95.183319,112.764915 
	C95.536789,112.389496 95.890259,112.014076 96.243721,111.638657 
	C92.312927,102.180466 88.382133,92.722275 84.451340,83.264084 
	C84.009178,83.330925 83.567024,83.397774 83.124863,83.464615 
	C79.401436,93.010757 75.678009,102.556900 71.954590,112.103043 
	C72.568863,112.433853 73.183128,112.764671 73.797401,113.095482 
	C74.882133,111.265083 76.394226,109.556847 76.959839,107.578072 
	C78.033875,103.820625 79.889366,101.858109 84.015526,102.644730 
	C85.298988,102.889404 86.666336,102.694023 88.816124,102.986641 
M184.426071,106.747665 
	C185.794891,101.609322 182.849869,98.936333 178.725067,97.137695 
	C176.767502,96.284096 174.411682,96.232788 172.601791,95.186035 
	C171.099869,94.317406 169.044754,92.390350 169.193375,91.170914 
	C169.399078,89.483315 171.151962,87.404617 172.781128,86.636986 
	C174.338470,85.903221 176.584808,86.653740 178.529495,86.712395 
	C179.809296,86.750999 181.091202,86.719696 182.372162,86.719696 
	C182.433151,86.181267 182.494141,85.642845 182.555130,85.104416 
	C180.599884,84.441376 178.690308,83.501900 176.680374,83.169983 
	C171.740021,82.354149 166.864258,85.198280 165.923965,89.169724 
	C164.853653,93.690361 167.411789,97.103073 173.113815,98.752808 
	C174.543900,99.166565 176.277786,99.194870 177.341873,100.055687 
	C179.000015,101.397057 181.371002,103.372505 181.271698,104.942085 
	C181.173721,106.490936 178.573822,108.684143 176.724457,109.119209 
	C174.338074,109.680611 171.610138,108.734940 169.022522,108.520142 
	C167.782120,108.417168 166.526093,108.502411 165.277145,108.502411 
	C172.571899,114.371346 179.556320,113.539444 184.426071,106.747665 
M127.086823,95.211983 
	C127.086823,92.300789 127.086823,89.389595 127.086823,86.067238 
	C131.407867,86.067238 135.133163,86.067238 138.858444,86.067238 
	C138.920395,85.316154 138.982346,84.565071 139.044296,83.813988 
	C134.228745,83.045250 129.264099,83.528969 124.112122,83.450890 
	C124.112122,93.309792 124.112122,102.716713 124.112122,112.090981 
	C134.113403,113.563026 138.158508,112.938957 138.637527,109.544617 
	C134.833389,109.544617 131.078339,109.544617 127.233917,109.544617 
	C127.233917,105.897095 127.233917,102.631508 127.233917,99.393272 
	C135.987106,98.451019 135.987106,98.451019 136.765869,95.904823 
	C133.636612,95.904823 130.682297,95.904823 127.086823,95.211983 
M45.613400,83.723129 
	C33.380733,82.354797 26.866003,83.065262 25.893560,86.157753 
	C28.544497,86.302620 31.131893,86.444016 34.108555,86.606682 
	C34.108555,94.049065 34.024956,101.327187 34.184563,108.599983 
	C34.213764,109.930626 35.232784,111.239540 35.794895,112.558487 
	C36.299282,111.204666 37.212337,109.859062 37.239758,108.495651 
	C37.385147,101.267136 37.308064,94.034142 37.308064,86.359879 
	C39.771976,86.359879 41.597965,86.566139 43.342224,86.277863 
	C44.296520,86.120140 45.112640,85.126396 45.613400,83.723129 
M93.000908,124.643585 
	C93.000908,126.909760 93.000908,129.175934 93.000908,131.377640 
	C100.215393,132.171478 100.343979,132.169235 100.210159,124.490181 
	C100.189926,123.329338 98.501198,121.528877 97.281006,121.219215 
	C95.581673,120.787949 92.636749,119.935425 93.000908,124.643585 
M121.036224,128.172363 
	C120.902245,125.790436 120.768265,123.408516 120.580841,120.076302 
	C118.689201,122.507065 117.642883,123.851593 116.596550,125.196114 
	C115.383125,123.875710 114.169701,122.555298 112.502396,120.740997 
	C112.502396,124.635208 112.502396,128.139236 112.502396,131.997513 
	C114.185608,130.133133 115.418045,128.768021 116.650497,127.402924 
	C117.773804,128.863297 118.897118,130.323669 120.527473,132.443222 
	C120.768379,130.832062 120.902222,129.936966 121.036224,128.172363 
M105.094635,129.381393 
	C105.627235,128.933136 106.228600,128.544540 106.679207,128.025146 
	C107.894798,126.623985 109.046158,125.167091 110.223007,123.732323 
	C108.690727,122.840714 107.206192,121.845329 105.603088,121.107635 
	C104.944862,120.804741 104.030937,121.057495 102.764862,121.057495 
	C102.764862,124.236565 102.494728,127.195068 102.844452,130.078369 
	C103.163780,132.711014 104.224342,132.850494 105.094635,129.381393 
M125.893761,128.313400 
	C123.851540,123.180717 128.005325,123.336945 131.111084,122.273643 
	C128.459824,120.457817 125.465744,120.210457 124.159157,122.964539 
	C123.176376,125.036072 123.332458,128.578461 124.531197,130.498718 
	C125.788261,132.512405 128.872681,133.071838 131.321777,130.124481 
	C129.439575,129.690384 127.956398,129.348312 125.893761,128.313400 
M81.283859,130.535553 
	C82.174095,129.797104 83.064323,129.058655 83.954559,128.320206 
	C83.564308,127.920181 83.174065,127.520157 82.783813,127.120132 
	C82.294159,128.035400 81.804512,128.950653 81.283859,130.535553 
z"/>
<path fill="#F0F0F0" opacity="1.000000" stroke="none" 
	d="
M32.036030,30.339497 
	C56.504330,30.226639 80.478004,29.998920 104.451271,30.036715 
	C134.749481,30.084478 160.801849,47.836731 171.578384,75.517082 
	C171.814224,76.122841 171.950821,76.767227 172.244888,77.774277 
	C170.140106,77.774277 168.260468,77.774277 166.073608,77.774277 
	C161.879288,67.731949 155.847397,58.686012 147.222015,51.523201 
	C134.848862,41.248135 120.650185,36.165844 104.537994,36.210732 
	C76.920807,36.287670 49.303246,36.231983 21.303009,36.231983 
	C21.303009,34.734322 21.303009,32.848408 21.303009,30.342545 
	C24.648251,30.342545 28.094740,30.342545 32.036030,30.339497 
z"/>
<path fill="#F4F4F4" opacity="1.000000" stroke="none" 
	d="
M53.729691,140.211807 
	C86.316673,182.179398 151.889038,170.993896 168.133652,118.970901 
	C169.867172,118.970901 171.656418,118.970901 173.466202,118.970901 
	C170.040512,145.427155 139.706329,170.411713 109.357323,171.913574 
	C75.601875,173.584015 44.224087,150.771088 37.048752,119.101501 
	C38.860924,119.101501 40.616299,119.101501 41.904732,119.101501 
	C45.815231,126.128441 49.657642,133.033035 53.729691,140.211807 
z"/>
<path fill="#F7F7F7" opacity="1.000000" stroke="none" 
	d="
M105.028976,57.064465 
	C108.047470,54.239418 110.501167,51.010311 113.755707,49.376240 
	C116.528076,47.984264 120.310593,47.774097 123.488838,48.204166 
	C129.036743,48.954899 134.410858,50.973618 139.957245,51.756607 
	C144.813705,52.442196 146.719650,54.815670 146.138565,59.392727 
	C145.596558,63.661957 144.994339,67.943001 144.049576,72.135681 
	C143.247040,75.697258 142.201828,76.038986 140.139618,75.433243 
	C138.338333,71.825142 137.680252,67.934669 135.770615,67.170090 
	C130.311676,64.984444 125.776260,67.613434 124.152763,72.334084 
	C123.779259,73.420135 122.227631,74.918472 121.371040,74.825081 
	C120.154022,74.692383 118.747437,73.476158 118.012177,72.340645 
	C116.530220,70.051956 115.446411,67.505455 114.456673,65.570335 
	C112.239441,65.907669 109.637642,66.716179 109.402901,66.272461 
	C107.843323,63.324413 103.558022,61.691254 105.028976,57.064465 
z"/>
<path fill="#F6F6F6" opacity="1.000000" stroke="none" 
	d="
M99.025787,67.168381 
	C98.109818,68.646332 97.075294,69.726387 95.726906,71.134132 
	C95.719200,71.109306 95.968285,71.911812 96.292213,72.955467 
	C94.578583,72.589462 93.156593,72.285744 91.734612,71.982033 
	C91.803864,72.470352 91.873116,72.958664 91.942375,73.446983 
	C90.630646,73.889755 89.284294,74.743805 88.018814,74.637260 
	C87.106201,74.560432 86.367592,73.112129 85.431633,72.443031 
	C84.228691,71.583069 82.905876,70.890800 81.634697,70.126297 
	C81.196114,71.369408 80.757523,72.612518 79.901863,75.037766 
	C77.475761,73.125420 75.230484,71.355614 72.630623,69.306313 
	C72.443436,71.022148 72.247009,72.822670 72.023361,74.872665 
	C66.939850,75.885864 65.944237,71.928795 65.058281,68.214653 
	C63.662045,62.361313 65.257698,58.243263 69.515045,57.073467 
	C72.190849,56.338242 75.078377,56.279213 77.882263,56.129875 
	C80.964287,55.965733 84.068253,56.182999 87.146255,55.982491 
	C90.428787,55.768665 97.047882,60.218861 97.932266,63.455967 
	C98.235710,64.566689 98.581039,65.665970 99.025787,67.168381 
z"/>
<path fill="#D2D2D2" opacity="1.000000" stroke="none" 
	d="
M144.208923,112.382904 
	C143.854202,102.787041 143.854202,93.390221 143.854202,83.975082 
	C152.543228,82.199371 158.474106,83.864426 161.025360,88.835556 
	C163.365997,93.396225 162.033798,97.375519 156.279343,102.399673 
	C157.522186,104.010536 158.791412,105.652435 160.057159,107.297005 
	C161.235748,108.828323 162.410645,110.362480 164.130112,112.602798 
	C155.854919,112.765190 156.049103,100.040482 146.650925,103.477646 
	C146.650925,105.279266 146.883087,107.416740 146.558334,109.465950 
	C146.381470,110.581955 145.259415,111.548164 144.208923,112.382904 
M146.623947,95.352509 
	C146.729095,96.773209 146.834244,98.193901 146.952209,99.787704 
	C151.433990,99.858429 155.988007,100.610123 157.938293,95.837364 
	C158.711578,93.944954 158.391388,90.772568 157.239029,89.098434 
	C154.776993,85.521599 150.750885,86.277992 146.622498,86.634651 
	C146.622498,89.490303 146.622498,91.935654 146.623947,95.352509 
z"/>
<path fill="#D1D1D1" opacity="1.000000" stroke="none" 
	d="
M117.255447,106.077240 
	C112.658371,111.981987 106.733376,113.167160 99.728996,112.409386 
	C99.728996,102.925514 99.728996,93.532379 99.728996,83.690849 
	C106.291458,82.715561 112.291985,83.710739 116.712723,89.117348 
	C120.978539,94.334480 121.049904,100.044662 117.255447,106.077240 
M116.701958,96.830940 
	C114.560005,89.153038 110.768768,86.357811 103.152222,86.867920 
	C103.152222,94.370430 103.152222,101.867416 103.152222,109.364769 
	C111.876198,109.055901 115.460609,105.855782 116.701958,96.830940 
z"/>
<path fill="#E2E2E2" opacity="1.000000" stroke="none" 
	d="
M63.657894,104.027649 
	C65.831932,106.769997 67.744843,109.238838 69.827438,111.926674 
	C65.736526,113.732552 64.846695,110.191025 63.289108,108.387688 
	C60.615349,105.292030 58.652206,101.209480 53.282776,103.261497 
	C52.920361,106.347389 52.542637,109.563614 52.164913,112.779831 
	C51.530201,112.700142 50.895493,112.620453 50.260780,112.540764 
	C50.260780,103.078735 50.260780,93.616707 50.260780,83.624329 
	C53.223160,83.624329 56.777348,82.781807 59.609276,83.851463 
	C62.697224,85.017822 66.002701,87.452721 67.594429,90.254395 
	C69.453308,93.526291 67.946426,97.291290 65.115021,100.199516 
	C64.244087,101.094070 63.953243,102.553406 63.657894,104.027649 
M64.995872,94.179390 
	C64.595657,87.478027 61.666756,85.621452 53.241150,86.797417 
	C53.241150,91.127274 53.241150,95.464081 53.241150,99.758919 
	C58.187366,100.109505 62.679832,100.236504 64.995872,94.179390 
z"/>
<path fill="#E1E1E1" opacity="1.000000" stroke="none" 
	d="
M88.405701,102.843369 
	C86.666336,102.694023 85.298988,102.889404 84.015526,102.644730 
	C79.889366,101.858109 78.033875,103.820625 76.959839,107.578072 
	C76.394226,109.556847 74.882133,111.265083 73.797401,113.095482 
	C73.183128,112.764671 72.568863,112.433853 71.954590,112.103043 
	C75.678009,102.556900 79.401436,93.010757 83.124863,83.464615 
	C83.567024,83.397774 84.009178,83.330925 84.451340,83.264084 
	C88.382133,92.722275 92.312927,102.180466 96.243721,111.638657 
	C95.890259,112.014076 95.536789,112.389496 95.183319,112.764915 
	C94.154984,111.897766 92.803543,111.218880 92.165733,110.124191 
	C90.847878,107.862305 89.910187,105.378922 88.405701,102.843369 
M80.569557,99.530975 
	C82.839180,99.635681 85.108810,99.740379 87.995956,99.873573 
	C86.629395,96.502365 85.496124,93.706680 83.914841,89.805786 
	C82.463303,93.625107 81.485703,96.197411 80.569557,99.530975 
z"/>
<path fill="#DEDEDE" opacity="1.000000" stroke="none" 
	d="
M184.290695,107.104309 
	C179.556320,113.539444 172.571899,114.371346 165.277145,108.502411 
	C166.526093,108.502411 167.782120,108.417168 169.022522,108.520142 
	C171.610138,108.734940 174.338074,109.680611 176.724457,109.119209 
	C178.573822,108.684143 181.173721,106.490936 181.271698,104.942085 
	C181.371002,103.372505 179.000015,101.397057 177.341873,100.055687 
	C176.277786,99.194870 174.543900,99.166565 173.113815,98.752808 
	C167.411789,97.103073 164.853653,93.690361 165.923965,89.169724 
	C166.864258,85.198280 171.740021,82.354149 176.680374,83.169983 
	C178.690308,83.501900 180.599884,84.441376 182.555130,85.104416 
	C182.494141,85.642845 182.433151,86.181267 182.372162,86.719696 
	C181.091202,86.719696 179.809296,86.750999 178.529495,86.712395 
	C176.584808,86.653740 174.338470,85.903221 172.781128,86.636986 
	C171.151962,87.404617 169.399078,89.483315 169.193375,91.170914 
	C169.044754,92.390350 171.099869,94.317406 172.601791,95.186035 
	C174.411682,96.232788 176.767502,96.284096 178.725067,97.137695 
	C182.849869,98.936333 185.794891,101.609322 184.290695,107.104309 
z"/>
<path fill="#E1E1E1" opacity="1.000000" stroke="none" 
	d="
M127.407394,95.558403 
	C130.682297,95.904823 133.636612,95.904823 136.765869,95.904823 
	C135.987106,98.451019 135.987106,98.451019 127.233917,99.393272 
	C127.233917,102.631508 127.233917,105.897095 127.233917,109.544617 
	C131.078339,109.544617 134.833389,109.544617 138.637527,109.544617 
	C138.158508,112.938957 134.113403,113.563026 124.112122,112.090981 
	C124.112122,102.716713 124.112122,93.309792 124.112122,83.450890 
	C129.264099,83.528969 134.228745,83.045250 139.044296,83.813988 
	C138.982346,84.565071 138.920395,85.316154 138.858444,86.067238 
	C135.133163,86.067238 131.407867,86.067238 127.086823,86.067238 
	C127.086823,89.389595 127.086823,92.300789 127.407394,95.558403 
z"/>
<path fill="#D7D7D7" opacity="1.000000" stroke="none" 
	d="
M45.802238,84.116394 
	C45.112640,85.126396 44.296520,86.120140 43.342224,86.277863 
	C41.597965,86.566139 39.771976,86.359879 37.308064,86.359879 
	C37.308064,94.034142 37.385147,101.267136 37.239758,108.495651 
	C37.212337,109.859062 36.299282,111.204666 35.794899,112.558487 
	C35.232784,111.239540 34.213764,109.930626 34.184563,108.599983 
	C34.024956,101.327187 34.108555,94.049065 34.108555,86.606682 
	C31.131893,86.444016 28.544497,86.302620 25.893560,86.157753 
	C26.866003,83.065262 33.380733,82.354797 45.802238,84.116394 
z"/>
<path fill="#DDDDDD" opacity="1.000000" stroke="none" 
	d="
M92.999550,124.190399 
	C92.636749,119.935425 95.581673,120.787949 97.281006,121.219215 
	C98.501198,121.528877 100.189926,123.329338 100.210159,124.490181 
	C100.343979,132.169235 100.215393,132.171478 93.000908,131.377640 
	C93.000908,129.175934 93.000908,126.909760 92.999550,124.190399 
z"/>
<path fill="#E5E5E5" opacity="1.000000" stroke="none" 
	d="
M121.036140,128.607117 
	C120.902222,129.936966 120.768379,130.832062 120.527473,132.443222 
	C118.897118,130.323669 117.773804,128.863297 116.650497,127.402924 
	C115.418045,128.768021 114.185608,130.133133 112.502396,131.997513 
	C112.502396,128.139236 112.502396,124.635208 112.502396,120.740997 
	C114.169701,122.555298 115.383125,123.875710 116.596558,125.196121 
	C117.642883,123.851593 118.689201,122.507065 120.580841,120.076302 
	C120.768265,123.408516 120.902245,125.790436 121.036140,128.607117 
z"/>
<path fill="#E7E7E7" opacity="1.000000" stroke="none" 
	d="
M105.083466,129.768158 
	C104.224342,132.850494 103.163780,132.711014 102.844452,130.078369 
	C102.494728,127.195068 102.764862,124.236565 102.764862,121.057495 
	C104.030937,121.057495 104.944862,120.804741 105.603088,121.107635 
	C107.206192,121.845329 108.690727,122.840714 110.223007,123.732323 
	C109.046158,125.167091 107.894798,126.623985 106.679207,128.025146 
	C106.228600,128.544540 105.627235,128.933136 105.083466,129.768158 
z"/>
<path fill="#DCDCDC" opacity="1.000000" stroke="none" 
	d="
M126.183487,128.659821 
	C127.956398,129.348312 129.439575,129.690384 131.321777,130.124481 
	C128.872681,133.071838 125.788261,132.512405 124.531197,130.498718 
	C123.332458,128.578461 123.176376,125.036072 124.159157,122.964539 
	C125.465744,120.210457 128.459824,120.457817 131.111084,122.273643 
	C128.005325,123.336945 123.851540,123.180717 126.183487,128.659821 
z"/>
<path fill="#656565" opacity="1.000000" stroke="none" 
	d="
M89.009323,124.419418 
	C89.166428,124.074005 89.323532,123.728600 89.480644,123.383186 
	C89.884560,123.830315 90.625923,124.280518 90.621880,124.723930 
	C90.613571,125.636436 90.206810,126.545319 89.682037,127.850578 
	C89.128761,128.480438 89.007027,128.776855 89.034851,129.134720 
	C89.034851,129.134720 89.034332,129.039276 88.740997,128.882507 
	C88.634872,127.290291 88.822098,125.854851 89.009323,124.419418 
z"/>
<path fill="#D7D7D7" opacity="1.000000" stroke="none" 
	d="
M88.687439,124.516716 
	C88.822098,125.854851 88.634872,127.290291 88.772354,128.918472 
	C88.271393,129.551102 87.445740,129.990997 86.437248,130.528290 
	C86.546791,128.670044 86.617004,127.479050 86.399429,125.845856 
	C86.434792,125.230515 86.757935,125.057381 87.081078,124.884247 
	C87.509239,124.794167 87.937401,124.704094 88.687439,124.516716 
z"/>
<path fill="#8F8F8F" opacity="1.000000" stroke="none" 
	d="
M81.299362,130.200745 
	C81.804512,128.950653 82.294159,128.035400 82.783813,127.120132 
	C83.174065,127.520157 83.564308,127.920181 83.954559,128.320206 
	C83.064323,129.058655 82.174095,129.797104 81.299362,130.200745 
z"/>
<path fill="#656565" opacity="1.000000" stroke="none" 
	d="
M87.003967,124.552147 
	C86.757935,125.057381 86.434792,125.230515 86.081207,125.678162 
	C85.856079,125.986298 85.661385,126.019913 85.115166,125.729195 
	C84.478592,125.221550 84.193550,125.038239 83.903862,124.632767 
	C83.899216,124.410614 83.783508,123.981537 83.783508,123.981537 
	C84.831291,124.061043 85.879066,124.140541 87.003967,124.552147 
z"/>
<path fill="#090909" opacity="1.000000" stroke="none" 
	d="
M83.471573,123.983047 
	C83.783508,123.981537 83.899216,124.410614 83.614075,124.750343 
	C83.041389,125.390930 82.753838,125.691780 82.466286,125.992638 
	C81.877403,125.563034 81.288521,125.133430 80.699631,124.703842 
	C81.519638,124.464073 82.339638,124.224312 83.471573,123.983047 
z"/>
<path fill="#D1D1D1" opacity="1.000000" stroke="none" 
	d="
M82.427490,126.405838 
	C82.753838,125.691780 83.041389,125.390930 83.618729,124.972504 
	C84.193550,125.038239 84.478592,125.221550 84.829575,125.650017 
	C84.059906,126.203125 83.224304,126.511086 82.427490,126.405838 
z"/>
<path fill="#D7D7D7" opacity="1.000000" stroke="none" 
	d="
M89.336243,129.220505 
	C89.007027,128.776855 89.128761,128.480438 89.639946,128.183655 
	C89.799103,128.516647 89.718369,128.911469 89.336243,129.220505 
z"/>
<path fill="#090909" opacity="1.000000" stroke="none" 
	d="
M146.623230,94.866760 
	C146.622498,91.935654 146.622498,89.490303 146.622498,86.634651 
	C150.750885,86.277992 154.776993,85.521599 157.239029,89.098434 
	C158.391388,90.772568 158.711578,93.944954 157.938293,95.837364 
	C155.988007,100.610123 151.433990,99.858429 146.952209,99.787704 
	C146.834244,98.193901 146.729095,96.773209 146.623230,94.866760 
z"/>
<path fill="#070707" opacity="1.000000" stroke="none" 
	d="
M116.724487,97.215820 
	C115.460609,105.855782 111.876198,109.055901 103.152222,109.364769 
	C103.152222,101.867416 103.152222,94.370430 103.152222,86.867920 
	C110.768768,86.357811 114.560005,89.153038 116.724487,97.215820 
z"/>
<path fill="#090909" opacity="1.000000" stroke="none" 
	d="
M64.927650,94.573898 
	C62.679832,100.236504 58.187366,100.109505 53.241150,99.758919 
	C53.241150,95.464081 53.241150,91.127274 53.241150,86.797417 
	C61.666756,85.621452 64.595657,87.478027 64.927650,94.573898 
z"/>
<path fill="#232323" opacity="1.000000" stroke="none" 
	d="
M80.538826,99.150345 
	C81.485703,96.197411 82.463303,93.625107 83.914841,89.805786 
	C85.496124,93.706680 86.629395,96.502365 87.995956,99.873573 
	C85.108810,99.740379 82.839180,99.635681 80.538826,99.150345 
z"/>
</svg>